<?xml version="1.0" encoding="utf-8"?>
<!-- Generator: Adobe Illustrator 26.5.0, SVG Export Plug-In . SVG Version: 6.00 Build 0)  -->
<svg version="1.1" id="Calque_1" xmlns="http://www.w3.org/2000/svg" xmlns:xlink="http://www.w3.org/1999/xlink" x="0px" y="0px"
	 viewBox="0 0 512 512" style="enable-background:new 0 0 512 512;" xml:space="preserve">
<style type="text/css">
	.st0{fill:#FFFFFF;}
</style>
<g transform="translate(0,0)">
	<path class="st0" d="M375.5,251.2l-110,51.1l0.2,183.4L477,266.3l-87-21.8L375.5,251.2z M362.7,359.9l-5.9,14.7l-48.6-9l5-12.8
		c4.7-3.5,9.2-7.3,13.5-11.4c5.9-5.4,11.5-11.3,16.6-17.5c4.6-5.7,8.8-11.7,12.6-18c3.7-5.7,6.9-11.7,9.5-18l14.1,2.5
		c-6.2,14.9-16.4,29.7-30.4,44.4c-8.9,9.1-15.7,15.3-20.6,18.6L362.7,359.9z M121.6,244.3l-84.7,21.8L246.5,486V302.4l-109.9-51.1
		L121.6,244.3z M140.8,295.2c8.7-1.6,17.7,0.9,24.3,6.8c4.5,4.1,8.3,8.9,11.2,14.2l-13.1,2.7c-1.4-2.7-3.2-5.2-5.4-7.4
		c-3.5-3.3-7.2-4.5-11.3-3.9l-0.5,0.1c-2.4,0.4-4.4,2.1-5.2,4.4c-0.9,2.4-0.2,5.6,1.8,9.4c2.7,5.1,6.3,8.1,10.8,9
		c2.8,0.5,5.7,0.4,8.6-0.2l1.9-0.3l5.8,10.8c-4.3,1-7,2-8.2,3.3c-2.1,2.1-2,5.4,0.4,9.9c1.4,2.7,3.5,5.1,6.1,6.7
		c2.2,1.4,4.8,2,7.4,1.5l0.4-0.1c3.2-0.6,4.9-2.2,5.1-4.8c0.3-2.6-0.7-5.7-2.7-9.5l12.4-2.5c1.8,3.6,3.2,7.3,4.1,11.2
		c0.5,3.1,0.3,6.4-0.6,9.4c-0.8,2.2-2.1,4-4,5.4c-2.4,1.7-5.1,2.8-8,3.2l-1.2,0.2c-6,1-12.1,0.1-17.5-2.7c-6.1-3.1-11-8-14.1-14.1
		c-2.4-4.5-3.3-8.6-2.6-12.2c0.3-1.9,1.1-3.6,2.5-4.9H149c-1.2,0.2-3.6-0.6-7-2.5c-5.6-3.1-10.1-7.9-12.9-13.6
		c-3.5-6.5-4.6-12.6-3.3-18.4c1.3-5.8,5.9-9.4,13.7-11L140.8,295.2z M27.2,248.9L136,132.6c0.5,0,1,0,1.4,0h0.2
		c2.1,0.2,3,1.5,2.8,3.7c-0.5,2.9-1.6,5.7-3.3,8.1c-2.6,4-5.9,7.6-9.7,10.4c-2.6,2-7.6,5.1-15,9.5c-8.5,5-15,9.9-19.5,14.8
		c-4.3,4.4-8.2,9.3-11.5,14.5l32.9,3.8l8.2-13l-21-2.4c1.5-1.4,3.1-2.7,4.8-3.8c1.6-1.1,4.4-2.8,8.4-5.1l6.4-3.7
		c4.5-2.6,8.9-5.5,12.9-8.8c4.9-4.1,9.1-9,12.5-14.4c4.6-7.2,6.7-13.2,6.5-18c-0.2-3.9-2.1-6.4-5.7-7.5L227,35.4L124.9,215
		l-5.7,10.1L27.2,248.9z M394.4,176.9c-2.5-3.6-3.8-6.5-3.8-8.5c0-2,1.2-3.2,3.6-3.4h0.6c2.5,0,4.9,0.8,6.9,2.2
		c3.1,2.2,5.8,4.9,7.8,8.1c2.5,3.5,3.7,6.3,3.7,8.4c0,2.1-1.2,3.3-3.5,3.6h-0.6c-2.5,0-5-0.9-7-2.4
		C399.2,182.7,396.5,180,394.4,176.9L394.4,176.9z M285,35.4L369,125h-1.2c-0.4,0-1,0-1.5,0.1c-5.2,0.6-8,2.9-8.3,6.9
		c-0.3,4,1.3,8.6,5,13.7c1.9,2.6,4,5.1,6.4,7.4c3,2.8,6.4,5.2,10.1,6.9c-1.4,1.9-1.6,4.6-0.7,8c1.2,4,3.1,7.7,5.6,11.1
		c4.1,5.9,9.2,10.9,15.2,14.8c5.4,3.5,10.8,5.2,16.1,4.9c0.5,0,1.1,0,1.6-0.1c5.9-0.7,8.9-3.3,9.2-7.9c0.1-1.6-0.1-3.3-0.5-4.9
		l58.7,62.7l-91.6-22.9l-6.1-10.7L285,35.4z M383.2,140.3l2.5,2.6c0.5,0.6,0.9,1.2,1.4,1.8c1.8,2.6,2.7,4.8,2.7,6.5
		c0,1.8-1,2.8-3.1,3h-0.5c-2.2,0-4.3-0.7-6.1-1.9c-2.4-1.6-4.5-3.7-6.2-6.1c-2-2.8-2.9-5.1-2.9-6.8c0.1-1.7,1.1-2.7,3.2-2.9h0.5
		c2.1,0,4.2,0.6,6,1.9C381.6,138.9,382.5,139.6,383.2,140.3L383.2,140.3z M256,26L137.5,231l118.5,55L374.6,231L256,26z
		 M254.8,234.5c-11.7,0-19.9-4.1-24.6-12.3c-4.7-8.2-7.1-19.8-7.1-35c0-15.1,2.4-26.8,7.1-35c4.7-8.2,12.9-12.3,24.6-12.3
		c11.7,0,19.9,4.1,24.6,12.3c4.7,8.2,7.1,19.9,7.1,35c0,15.1-2.4,26.8-7.1,35C274.7,230.4,266.5,234.5,254.8,234.5L254.8,234.5z
		 M265.3,162.7c1.7,5.3,2.5,13.5,2.5,24.5c0,10.5-0.8,18.6-2.5,24.2c-1.7,5.6-5.2,8.4-10.5,8.3c-5.4,0-8.9-2.8-10.6-8.3
		c-1.7-5.5-2.6-13.6-2.6-24.2c0-11.1,0.9-19.2,2.6-24.5c1.7-5.3,5.3-8,10.6-8C260.1,154.7,263.6,157.3,265.3,162.7L265.3,162.7z"/>
</g>
</svg>
