<?xml version="1.0" encoding="utf-8"?>
<!-- Generator: Adobe Illustrator 26.5.0, SVG Export Plug-In . SVG Version: 6.00 Build 0)  -->
<svg version="1.1" id="Calque_1" xmlns="http://www.w3.org/2000/svg" xmlns:xlink="http://www.w3.org/1999/xlink" x="0px" y="0px"
	 viewBox="0 0 125 125" style="enable-background:new 0 0 125 125;" xml:space="preserve">
<style type="text/css">
	.st0{fill:#FFFFFF;}
</style>
<path class="st0" d="M115.43,61.92c0.06,9.68,0.12,19.36,0.19,29.03c0,0.33-0.05,0.67,0,1c0.19,1.45-0.58,2.28-1.76,2.93
	c-4.46,2.47-8.91,4.95-13.36,7.44c-10.16,5.68-20.32,11.36-30.47,17.05c-2.11,1.18-4.24,2.33-6.33,3.55c-1.23,0.71-2.35,0.71-3.6,0
	c-7.22-4.09-14.46-8.15-21.7-12.19c-9.35-5.23-18.69-10.49-28.07-15.67C8.66,94.14,7.94,92.92,8,91.08
	c0.17-4.78,0.39-9.57,0.43-14.36c0.11-12.57,0.12-25.14,0.18-37.71c0.01-2.58,0.05-5.17,0.11-7.75c0.01-0.35,0.16-0.67,0.41-0.91
	c0.68-0.55,1.4-1.05,2.16-1.49C24.2,21.58,37.1,14.3,50.01,7.04c3.37-1.9,6.72-3.82,10.06-5.76c1.16-0.67,2.31-0.72,3.45-0.12
	c2.13,1.14,4.23,2.34,6.33,3.53c12.11,6.85,24.22,13.71,36.32,20.57c2.76,1.57,5.47,3.22,8.22,4.82c0.63,0.37,0.87,0.84,0.87,1.61
	c-0.03,7.59-0.01,15.18-0.01,22.77c0,2.49,0,4.98,0,7.47L115.43,61.92z M97.33,83.17C85.64,61.61,73.86,40.32,61.87,19.02
	C50.02,40.48,38.02,61.66,26.39,83.17H97.33z M10.84,31.88c4.78,16.57,9.52,33.02,14.27,49.46h0.21c0.5-0.91,1-1.81,1.48-2.72
	c0.06-0.15,0.06-0.31,0-0.45c-0.6-1.42-1.24-2.82-1.83-4.24c-0.27-0.6-0.47-1.23-0.59-1.88c-0.04-0.27,0.23-0.79,0.47-0.87
	c0.26-0.08,0.76,0.11,0.95,0.35c0.33,0.42,0.53,0.94,0.74,1.45c0.47,1.13,0.92,2.27,1.44,3.56c0.79-1.42,1.49-2.65,2.13-3.9
	c0.08-0.16-0.04-0.5-0.16-0.69c-0.76-1.18-1.57-2.32-2.31-3.5c-0.33-0.49-0.59-1.03-0.77-1.59c-0.09-0.29,0.03-0.87,0.23-0.97
	c0.36-0.12,0.75-0.07,1.07,0.14c0.41,0.33,0.71,0.82,1,1.28c0.67,1.08,1.31,2.18,2,3.33c0.1-0.1,0.19-0.2,0.27-0.32
	c1.03-1.86,2.08-3.73,3.08-5.61c0.09-0.18,0.02-0.57-0.12-0.73c-0.61-0.66-1.27-1.27-1.91-1.91c-0.44-0.43-0.92-0.84-1.28-1.32
	c-0.48-0.64-0.2-1.15,0.58-1.21c0.7-0.06,1.16,0.35,1.59,0.8c0.6,0.64,1.17,1.31,1.76,1.95c0.32,0.35,0.59,0.3,0.81-0.14
	c0.4-0.78,0.82-1.55,1.24-2.32c0.42-0.77,0.84-1.52,1.27-2.3c-0.16-0.12-0.25-0.19-0.35-0.25c-0.57-0.33-1.18-0.62-1.71-1
	c-0.42-0.28-0.55-0.85-0.27-1.27c0.27-0.49,0.73-0.38,1.13-0.19c0.56,0.26,1.09,0.57,1.62,0.88c0.28,0.16,0.51,0.19,0.7-0.15
	c0.8-1.48,1.61-2.96,2.42-4.43c0.2-0.37,0.14-0.59-0.24-0.79c-0.98-0.52-1.95-1.07-2.92-1.62c-0.31-0.18-0.68-0.35-0.84-0.63
	c-0.17-0.3-0.25-0.79-0.12-1.08c0.1-0.2,0.66-0.33,0.95-0.26c0.47,0.12,0.89,0.43,1.32,0.67c1,0.54,1.98,1.09,3.01,1.65
	c0.81-1.46,1.57-2.82,2.31-4.19c0.63-1.18,0.61-1.2-0.62-1.7c-0.57-0.23-0.85-0.62-0.69-1.22c0.17-0.64,0.71-0.56,1.17-0.46
	c0.57,0.12,1.12,0.33,1.73,0.52c0.98-1.78,1.94-3.54,2.99-5.47c-1.01-0.05-1.81-0.06-2.6-0.14c-0.98-0.1-1.96-0.27-2.92-0.5
	c-0.26-0.06-0.62-0.6-0.57-0.82c0.08-0.3,0.5-0.55,0.82-0.71c0.21-0.11,0.51-0.05,0.77-0.03c1.04,0.12,2.07,0.22,3.1,0.38
	c2.16,0.32,2.16,0.34,3.25-1.52c0.04-0.06,0.08-0.12,0.11-0.18c0.65-1.18,1.29-2.36,2.01-3.67c-0.56,0.07-0.95,0.1-1.34,0.16
	c-2.06,0.33-4.11,0.71-6.17,1c-0.9,0.12-1.48-0.28-1.51-0.83c-0.03-0.51,0.45-0.88,1.35-1c2.58-0.36,5.15-0.75,7.74-1.05
	c0.76-0.09,1.18-0.36,1.49-1.03c0.44-0.93,0.97-1.82,1.55-2.88c-0.45,0.06-0.7,0.08-0.94,0.13c-1.65,0.33-3.29,0.69-4.95,0.98
	C50.32,25,49.7,24.7,49.6,24.15c-0.11-0.58,0.32-1,1.32-1.18c2.28-0.4,4.57-0.77,6.86-1.15c0.18-0.03,0.43-0.08,0.5-0.21
	c0.61-1.02,1.2-2.07,1.79-3.1l-0.14-0.13L10.84,31.88z M77.95,44.09c0.65-0.13,1.23-0.31,1.8-0.31c0.35,0.04,0.66,0.24,0.85,0.54
	c0.2,0.43-0.04,0.83-0.5,1.03c-0.15,0.08-0.3,0.13-0.47,0.17c-0.63,0.1-0.63,0.46-0.38,0.92c0.35,0.64,0.7,1.29,1.07,1.92
	c0.66,1.12,0.4,1.39,1.83,0.4c0.45-0.34,0.95-0.61,1.48-0.82c0.3-0.1,0.96,0.04,0.99,0.16c0.08,0.42,0.03,0.85-0.15,1.24
	c-0.16,0.3-0.57,0.49-0.89,0.68c-0.39,0.22-0.8,0.42-1.21,0.6c-0.47,0.2-0.59,0.47-0.31,0.93c0.42,0.69,0.82,1.39,1.18,2.11
	c0.26,0.54,0.6,0.61,1.08,0.32c0.71-0.43,1.41-0.86,2.15-1.24c0.33-0.17,0.76-0.4,1.08,0.08c0.32,0.48,0.25,0.97-0.15,1.35
	c-0.29,0.25-0.6,0.46-0.94,0.64c-0.51,0.3-1.05,0.56-1.53,0.9c-0.15,0.11-0.27,0.48-0.2,0.63c0.49,0.96,1.04,1.9,1.61,2.91
	c0.28-0.22,0.53-0.39,0.75-0.59c0.73-0.67,1.44-1.37,2.19-2.03c0.37-0.32,0.78-0.65,1.23-0.8c0.36-0.07,0.72,0.03,1,0.27
	c0.14,0.15,0.08,0.7-0.09,0.93c-0.37,0.49-0.85,0.89-1.3,1.3c-0.6,0.54-1.24,1.03-1.82,1.59c-1.01,0.99-1,1-0.34,2.28
	c0.22,0.43,0.44,0.84,0.69,1.24c0.1,0.14,0.22,0.26,0.35,0.37c0.74-0.9,1.39-1.77,2.13-2.56c0.22-0.24,0.7-0.24,1.06-0.35
	c0.1,0.41,0.37,0.88,0.25,1.22c-0.2,0.56-0.62,1.04-0.99,1.53c-0.41,0.55-0.89,1.05-1.29,1.6c-0.12,0.17-0.22,0.49-0.14,0.64
	c0.55,1.07,1.15,2.1,1.81,3.3c0.21-0.45,0.36-0.73,0.48-1.03c0.55-1.41,1.06-2.84,1.63-4.24c0.18-0.49,0.45-0.94,0.78-1.33
	c0.17-0.19,0.62-0.28,0.87-0.2c0.2,0.07,0.38,0.46,0.4,0.71c0,0.33-0.06,0.66-0.2,0.96c-0.84,2.13-1.71,4.27-2.54,6.4
	c-0.11,0.28-0.26,0.7-0.14,0.93c0.72,1.43,1.51,2.83,2.34,4.36c0.14-0.37,0.23-0.58,0.3-0.81c0.69-2.34,1.37-4.68,2.05-7.03
	c0.24-0.84,0.47-1.69,0.76-2.51c0.15-0.43,0.55-0.78,1-0.54c0.28,0.15,0.53,0.62,0.53,0.95c0,0.56-0.17,1.12-0.33,1.66
	c-0.95,3.3-1.91,6.6-2.86,9.9c-0.07,0.24-0.19,0.56-0.09,0.75c0.57,1.11,1.18,2.19,1.78,3.27c0.34-0.73,0.61-1.49,0.81-2.27
	l13.32-46.38c0.26-0.92,0.26-0.92-0.64-1.16c-4.32-1.18-8.64-2.35-12.95-3.53c-10.17-2.79-20.33-5.58-30.49-8.37
	c-1.54-0.43-3.1-0.81-4.83-1.26c0.49,0.9,0.86,1.66,1.31,2.37c0.17,0.27,0.43,0.47,0.73,0.57c1.08,0.28,2.17,0.51,3.26,0.73
	c1.58,0.32,3.17,0.58,4.73,0.94c0.57,0.13,1.2,0.35,1.11,1.15c-0.06,0.51-0.65,0.77-1.55,0.59c-1.98-0.38-3.94-0.82-5.91-1.23
	c-0.26-0.05-0.52-0.07-0.94-0.13c0.68,1.22,1.25,2.28,1.87,3.31c0.12,0.19,0.47,0.34,0.71,0.35c0.97,0.05,1.94,0.01,2.91,0.04
	c0.8,0.01,1.61,0.06,2.41,0.16c0.5,0.07,1.1,0.25,1.04,0.94C75.42,28.85,74.87,29,74.36,29c-1,0.01-1.98-0.04-2.98-0.09
	c-0.55-0.03-1.1-0.09-1.85-0.16c0.57,1.09,1,2.01,1.52,2.87c1.39,2.31,0.84,2.23,3.75,1.77c1.05-0.17,2.1-0.35,3.16-0.46
	c0.46-0.05,0.94,0.1,1.05,0.64c0.12,0.59-0.32,0.84-0.77,1.03c-0.2,0.08-0.4,0.15-0.61,0.18c-0.7,0.12-1.4,0.23-2.1,0.33
	c-0.73,0.1-1.47,0.19-2.33,0.3c0.78,1.45,1.47,2.76,2.21,4.05c0.06,0.11,0.38,0.15,0.55,0.11c0.53-0.14,1.03-0.37,1.55-0.51
	c0.71-0.18,1.42-0.38,2.15-0.43c0.28-0.02,0.78,0.31,0.83,0.55c0.06,0.31-0.15,0.8-0.41,1c-0.36,0.27-0.86,0.37-1.32,0.48
	c-0.73,0.17-1.47,0.28-2.38,0.47L77.95,44.09z M84.28,85.05c-1.79,0-3.37-0.02-4.95,0.02c-0.19,0-0.41,0.28-0.54,0.48
	c-0.81,1.31-1.58,2.65-2.41,3.94c-0.26,0.41-0.62,0.76-1.04,1.01c-0.23,0.13-0.71,0.02-0.95-0.16c-0.16-0.12-0.2-0.59-0.1-0.83
	c0.22-0.52,0.55-1,0.85-1.47c0.59-0.93,1.18-1.86,1.86-2.93c-0.44-0.04-0.69-0.07-0.94-0.08c-0.85-0.01-1.71,0.06-2.56-0.02
	c-0.72-0.07-1.02,0.23-1.18,0.88c-0.13,0.51-0.29,1-0.5,1.48c-0.23,0.57-0.5,1.12-0.82,1.65c-0.25,0.4-0.61,0.79-1.17,0.49
	c-0.5-0.27-0.58-0.74-0.38-1.23c0.25-0.64,0.55-1.25,0.83-1.88l0.59-1.31h-4.94c-0.09,0.68-0.08,1.36-0.28,1.97
	c-0.09,0.26-0.61,0.54-0.92,0.52c-0.23-0.01-0.54-0.45-0.62-0.76c-0.11-0.37-0.04-0.8-0.02-1.2c0.02-0.43-0.18-0.6-0.59-0.59
	c-0.83,0.01-1.66,0-2.49,0c-1.57,0-1.54,0-1.32,1.6c0.11,0.8,0.16,1.6,0.17,2.41c0,0.48-0.16,0.97-0.77,1.03
	c-0.61,0.06-0.9-0.35-1-0.89c-0.07-0.35-0.1-0.7-0.11-1.06c-0.02-0.71-0.01-1.42-0.02-2.13c-0.01-0.64-0.23-1.01-0.97-0.96
	c-0.95,0.06-1.9,0.03-2.85,0.01c-0.53-0.01-0.73,0.17-0.62,0.72c0.09,0.44,0.16,0.92,0.06,1.33c-0.11,0.36-0.37,0.65-0.71,0.81
	c-0.45,0.17-0.76-0.19-0.87-0.62c-0.14-0.53-0.23-1.06-0.27-1.61c-0.03-0.51-0.25-0.63-0.72-0.63c-0.83,0.01-1.66-0.06-2.49-0.05
	c-0.65,0-1.3,0.07-2.09,0.12c0.59,1.19,1.12,2.24,1.63,3.3c0.22,0.47,0.47,0.95,0.55,1.45c0.05,0.3-0.16,0.84-0.37,0.92
	c-0.3,0.11-0.81-0.02-1.06-0.23c-0.32-0.27-0.51-0.73-0.7-1.13c-0.57-1.2-1.12-2.41-1.64-3.62c-0.24-0.56-0.57-0.81-1.19-0.76
	c-0.71,0.05-1.42,0.01-2.13,0.01h-2.34c0.27,0.4,0.44,0.62,0.57,0.85c0.27,0.47,0.59,0.93,0.78,1.42c0.25,0.66-0.18,1.17-0.88,1.02
	c-0.34-0.09-0.64-0.28-0.87-0.55c-0.35-0.42-0.64-0.88-0.87-1.38c-0.46-1.04-1.14-1.55-2.33-1.38c-0.75,0.1-1.52,0.02-2.28,0.02
	c-0.26,0-0.52-0.02-0.94-0.05c1.36,1.53,2.58,2.92,3.82,4.28c0.65,0.71,1.36,1.39,2.02,2.1c0.32,0.34,0.69,0.69,0.85,1.11
	c0.1,0.35,0.04,0.72-0.18,1.01c-0.14,0.16-0.67,0.11-0.94-0.03c-0.39-0.22-0.74-0.51-1.04-0.85c-1.73-1.82-3.45-3.65-5.17-5.49
	c-0.45-0.49-0.86-1.01-1.34-1.47c-0.79-0.74-1.7-0.89-2.56-0.38c11.38,12,22.75,24,34.11,35.99l34.17-36.01
	c-0.04-0.06-0.08-0.13-0.12-0.19c-0.83,0.07-1.72-0.35-2.45,0.42c-1.9,2.02-3.79,4.05-5.69,6.07c-0.28,0.31-0.58,0.67-0.95,0.83
	c-0.34,0.11-0.72,0.07-1.03-0.12c-0.15-0.1-0.14-0.61-0.05-0.89c0.12-0.34,0.31-0.64,0.56-0.9c1.39-1.52,2.81-3.02,4.21-4.53
	c0.22-0.24,0.43-0.5,0.64-0.75c-1.39-0.17-2.67-0.14-3.94-0.18c-0.5-0.04-0.98,0.2-1.25,0.61c-1.17,1.58-2.37,3.15-3.6,4.68
	c-0.37,0.43-0.82,0.77-1.33,1.02c-0.22,0.11-0.68,0-0.88-0.19c-0.14-0.14-0.14-0.6-0.03-0.82c0.22-0.44,0.57-0.81,0.88-1.2
	C82.11,87.81,83.15,86.49,84.28,85.05L84.28,85.05z M66.77,118.86l0.13,0.08l46.2-25.9l-4.33-2.4c-0.32,0.4-0.59,0.79-0.92,1.12
	c-0.37,0.38-0.85,0.46-1.29,0.14s-0.3-0.76-0.1-1.15c0.17-0.33,0.38-0.64,0.64-1.05l-4.18-2.3c-0.37,0.74-0.65,1.36-0.98,1.96
	c-0.37,0.65-1.06,0.93-1.55,0.6c-0.62-0.42-0.31-0.97-0.07-1.45c0.33-0.65,0.7-1.28,1.08-1.98c-0.69-0.39-1.34-0.73-1.96-1.11
	c-0.41-0.25-0.75-0.22-1.07,0.12c-0.3,0.32-0.69,0.6-0.85,0.98c-0.05,0.12,0.47,0.49,0.73,0.75c0.34,0.35,0.43,0.81,0.12,1.15
	c-0.18,0.2-0.65,0.28-0.92,0.2c-0.46-0.14-0.85-0.46-1.28-0.7l0.18,0.15c-0.92,0.82-1.87,1.61-2.75,2.47
	c-0.88,0.86-1.65,1.78-2.48,2.7c0.32,0.23,0.59,0.33,0.69,0.52c0.15,0.28,0.32,0.69,0.23,0.94c-0.1,0.25-0.52,0.43-0.82,0.46
	c-0.33,0.03-0.7-0.11-1.01-0.26c-0.36-0.17-0.6-0.14-0.87,0.16c-0.54,0.6-1.11,1.17-1.66,1.75c-0.33,0.35-0.61,0.68-0.49,1.25
	c0.09,0.45-0.19,0.85-0.68,0.79c-0.81-0.09-1.19,0.41-1.63,0.91c-0.52,0.59-1.09,1.12-1.62,1.69c-0.2,0.21-0.37,0.46-0.58,0.71
	c0.18,0.11,0.28,0.16,0.38,0.22c0.7,0.45,0.71,1.07-0.04,1.38c-0.45,0.19-1,0.16-1.51,0.23c-0.24,0.04-0.57,0-0.71,0.14
	c-0.91,0.89-1.78,1.81-2.55,2.62c0.34,0.38,0.86,0.75,0.8,0.94c-0.16,0.42-0.47,0.77-0.88,0.97c-0.44,0.2-1,0.14-1.5,0.21
	c-0.2,0.03-0.46,0.01-0.58,0.13c-1.02,1.04-2.01,2.11-3.14,3.32c0.25-0.11,0.51-0.2,0.77-0.28c0.51-0.12,1.04-0.18,1.3,0.39
	c0.28,0.6-0.1,1.01-0.59,1.27c-0.49,0.25-1.03,0.55-1.58,0.62c-1.72,0.23-3.02,1.06-4.09,2.39
	C68.14,117.5,67.44,118.16,66.77,118.86L66.77,118.86z M11.31,92.97l-0.14,0.3l45.55,25.5l0.12-0.19c-0.9-0.94-1.84-1.85-2.68-2.84
	c-0.6-0.71-1.32-0.98-2.21-1.07c-0.75-0.07-1.49-0.24-2.2-0.49c-0.28-0.1-0.55-0.58-0.57-0.91c-0.04-0.5,0.42-0.62,0.85-0.64
	c0.27-0.01,0.55,0,0.99,0c-0.62-0.8-1.14-1.47-1.67-2.13c-0.43-0.56-1.12-0.85-1.82-0.78c-0.64,0.06-1.27,0.08-1.91,0.06
	c-0.84-0.06-1.11-0.38-1.04-1.03c0.06-0.54,0.5-0.82,1.23-0.77c0.27,0.02,0.53,0.05,0.8,0.08c0.03-0.07,0.05-0.13,0.08-0.2
	c-0.98-0.67-1.27-2.4-3.06-1.84c-0.14,0.03-0.29,0.02-0.43-0.02c-0.5-0.14-0.95-0.36-1.03-0.94c-0.08-0.61,0.41-0.72,0.84-0.88
	c0.03-0.01,0.04-0.08,0.06-0.13c-0.94-1-1.85-2.02-2.83-2.99c-0.32-0.29-0.7-0.49-1.12-0.59c-0.67-0.17-0.89-0.4-0.85-1.13
	c0.02-0.18-0.03-0.36-0.13-0.51c-1.32-1.39-2.65-2.78-4.01-4.13c-0.19-0.19-0.58-0.27-0.86-0.25c-1,0.1-1.52-0.54-1.18-1.47
	c0.06-0.16,0.04-0.34-0.05-0.49c-1.1-1.23-2.23-2.44-3.34-3.64c-0.68,0.38-1.33,0.83-1.94,0.18c-0.65-0.7-0.02-1.23,0.48-1.76
	c-0.61-0.56-1.17-1.11-1.77-1.6c-0.4-0.33-0.84-0.33-1.32-0.06c-1.34,0.77-2.7,1.49-4.04,2.24c-0.55,0.31-1.07,0.65-1.75,1.07
	l1.08,0.39c0.65,0.23,1.31,0.43,1.93,0.71c0.71,0.33,0.94,0.84,0.7,1.34c-0.31,0.65-0.88,0.49-1.36,0.31
	c-0.83-0.29-1.63-0.64-2.41-1.05c-1.29-0.7-2.49-0.82-3.65,0.24c-0.28,0.26-0.69,0.4-1.03,0.62c-0.17,0.14-0.33,0.28-0.48,0.44
	c0.97,0.33,1.83,0.58,2.65,0.92c0.53,0.21,1.01,0.5,1.44,0.87c0.21,0.19,0.24,0.64,0.21,0.96c0,0.1-0.49,0.28-0.71,0.23
	c-0.95-0.24-1.9-0.52-2.83-0.85C13.01,93.73,12.17,93.33,11.31,92.97z M113.33,38.52l-0.2-0.02c-0.77,1.24-0.81,1.58-0.28,2.95
	c0.21,0.55,0.05,0.91-0.46,1.16c-0.92,0.46-1.39,2.19-0.91,3.11c0.36,0.69,0.68,1.4,0.96,2.12c0.16,0.43-0.03,0.79-0.46,0.99
	s-0.78,0.02-1.05-0.34c-0.18-0.23-0.33-0.48-0.57-0.83c-0.13,0.49-0.17,0.88-0.33,1.21c-0.65,1.38-0.48,2.63,0.46,3.83
	c0.26,0.34,0.41,0.75,0.43,1.18c0,0.38-0.17,0.74-0.45,1c-0.16,0.12-0.67-0.05-0.92-0.24c-0.34-0.25-0.57-0.63-0.89-1
	c-0.14,0.49-0.24,0.93-0.41,1.35c-0.27,0.68-0.22,1.3,0.11,1.96c0.22,0.47,0.35,0.98,0.37,1.5c0.05,0.74-0.54,1.05-1.19,0.7
	l-0.39-0.2c-0.11,0.35-0.19,0.64-0.3,0.93c-0.26,0.66-0.2,1.21,0.23,1.83c0.34,0.48,0.49,1.12,0.6,1.71
	c0.04,0.24-0.21,0.7-0.43,0.76c-0.26,0.09-0.64-0.09-0.94-0.23c-0.18-0.08-0.28-0.31-0.51-0.56c-0.55,1.98-1.06,3.8-1.54,5.63
	c-0.06,0.23,0.06,0.53,0.14,0.77c0.2,0.55,0.52,1.07,0.62,1.64c0.12,0.67-0.47,1.04-1.11,0.81c-0.14-0.05-0.28-0.13-0.42-0.2
	c-0.28,0.67-0.57,1.3-0.82,1.93c-0.39,0.88-0.38,1.88,0.02,2.76c0.36,0.8,0.69,1.61,1,2.43c0.18,0.47,0.22,0.96-0.37,1.2
	c-0.56,0.22-1.01-0.04-1.29-0.67c-0.15-0.35-0.31-0.71-0.46-1.07c-0.55,1.5-1.02,3.04-1.41,4.59c-0.02,0.2,0.06,0.4,0.21,0.53
	c0.54,0.35,1.12,0.65,1.78,1.01c0.08-0.48,0.14-0.8,0.2-1.12c0.06-0.35,0.09-0.71,0.16-1.05c0.17-0.78,0.56-1.17,1.09-1.07
	c0.74,0.14,0.76,0.73,0.68,1.28c-0.11,0.77-0.27,1.54-0.48,2.29c-0.11,0.41-0.07,0.65,0.34,0.85c0.97,0.5,1.91,1.05,2.87,1.57
	c0.29,0.13,0.58,0.24,0.89,0.34c0-0.76-0.03-1.37,0.01-1.98c0.03-0.45,0.21-0.84,0.76-0.88c0.52-0.03,0.79,0.25,0.9,0.72
	c0.06,0.2,0.09,0.42,0.09,0.63c-0.02,0.59-0.09,1.18-0.2,1.76c-0.11,0.48-0.01,0.75,0.41,0.98c0.98,0.53,1.94,1.1,2.91,1.64
	c0.32,0.18,0.66,0.32,1.09,0.53C113.7,73.59,113.51,56.06,113.33,38.52L113.33,38.52z M10.54,37.89
	c-0.18,17.18-0.35,34.16-0.53,51.14l0.21,0.06c0.4-1,0.8-2,1.2-3c0.22-0.55,0.38-1.14,0.7-1.62c0.25-0.29,0.62-0.45,1-0.42
	c0.21,0.04,0.52,0.58,0.48,0.86c-0.1,0.72-0.3,1.43-0.57,2.11c-0.44,1.11-0.96,2.19-1.53,3.47c1.14-0.63,2.09-1.21,3.08-1.69
	c0.64-0.3,1.13-0.84,1.37-1.51c0.21-0.55,0.5-1.07,0.87-1.53c0.18-0.22,0.65-0.34,0.94-0.27c0.23,0.06,0.39,0.45,0.57,0.71
	c0.06,0.09,0.05,0.21,0.11,0.47c1.73-1,3.38-1.94,5.02-2.93c0.14-0.09,0.24-0.45,0.2-0.64c-0.16-0.74-0.38-1.47-0.59-2.2
	c-0.21-0.73-0.44-1.46-0.68-2.25c-0.34,0.51-0.54,0.96-0.88,1.27c-0.3,0.27-0.74,0.37-1.12,0.55c-0.14-0.43-0.34-0.85-0.4-1.28
	c-0.03-0.25,0.14-0.54,0.26-0.8c0.22-0.45,0.45-0.88,0.71-1.31c0.57-0.96,0.66-1.95,0.23-2.99c-0.21-0.5-0.4-1.02-0.55-1.54
	c-0.81-2.82-1.6-5.65-2.41-8.47c-0.1-0.35-0.23-0.83-0.49-0.96c-0.71-0.36-0.62-0.9-0.61-1.51c0.01-0.65,0.05-1.33-0.12-1.95
	c-0.52-1.89-1.12-3.76-1.69-5.64c-0.05-0.15-0.11-0.3-0.2-0.52c-0.24,0.66-0.6,1.07-1.25,0.85c-0.65-0.22-0.58-0.79-0.47-1.32
	c0.14-0.65,0.33-1.28,0.5-1.93c0.36-1.36,0.1-2.74-0.62-3.56c-0.11,0.67-0.19,1.4-0.35,2.11c-0.11,0.48-0.53,0.75-0.98,0.57
	c-0.28-0.12-0.49-0.5-0.64-0.8c-0.09-0.17-0.03-0.42,0-0.63c0.1-0.77,0.2-1.55,0.33-2.32C12.13,43.55,11.75,40.57,10.54,37.89
	L10.54,37.89z M30.76,24.46c1.08-0.3,2.02-0.58,2.98-0.81c0.66-0.16,1.22-0.41,1.64-1c0.29-0.38,0.67-0.67,1.12-0.83
	c0.35-0.13,1.01-0.14,1.17,0.08c0.48,0.61,0.95,0.41,1.49,0.25c0.63-0.19,1.3-0.31,1.92-0.53c0.26-0.1,0.47-0.37,0.68-0.59
	c0.36-0.4,0.63-0.9,1.05-1.22c0.98-0.74,1.44-0.5,1.57,0.71c0,0.04,0.06,0.07,0.13,0.16c0.58-0.17,1.19-0.36,1.8-0.5
	c0.54-0.13,1.01-0.28,1.33-0.81c0.29-0.48,0.9-0.78,1.35-0.46c0.71,0.5,1.29,0.19,1.94,0.01c0.87-0.25,1.72-0.53,2.6-0.71
	c0.81-0.17,1.44-0.4,1.81-1.3s1.26-0.86,1.8-0.06c0.11,0.15,0.29,0.23,0.48,0.23c0.97-0.23,1.93-0.5,2.88-0.79
	c0.2-0.08,0.36-0.25,0.41-0.46c0.05-0.58,0.02-1.16,0.02-1.83c-0.6,0.16-1.1,0.28-1.6,0.41c-0.5,0.13-0.98,0.14-1.17-0.45
	c-0.18-0.57,0.13-0.98,0.63-1.19c0.51-0.21,1.09-0.32,1.61-0.53c0.21-0.08,0.49-0.29,0.51-0.47c0.06-0.74,0.02-1.49,0.02-2.28
	c-0.66,0.26-1.21,0.54-1.8,0.69c-0.25,0.07-0.68-0.03-0.82-0.22c-0.16-0.28-0.19-0.61-0.08-0.91c0.16-0.31,0.41-0.57,0.71-0.74
	c0.45-0.26,0.93-0.48,1.41-0.66c0.4-0.16,0.59-0.41,0.58-0.85c-0.02-1,0-1.99-0.01-2.99c-0.02-0.26-0.05-0.52-0.1-0.77l-44.66,25.3
	c1.38-0.24,2.75-0.57,4.09-0.99c0.44-0.14,0.83-0.47,1.21-0.75c0.81-0.59,1.57-1.27,2.42-1.8c0.49-0.31,0.9,0.01,1.08,0.56
	c0.06,0.18,0.08,0.36,0.16,0.75c0.46-0.26,0.88-0.43,1.22-0.69c0.98-0.78,1.9-1.63,2.89-2.4c0.36-0.26,0.79-0.43,1.24-0.48
	c0.71-0.1,1.06,0.42,0.78,1.08C31.11,23.9,30.94,24.19,30.76,24.46z M92.62,24.32l0.04-0.19c-0.69-0.5-1.38-1-2.06-1.52
	c-0.31-0.24-0.68-0.5-0.84-0.84c-0.13-0.33-0.12-0.71,0.03-1.03c0.09-0.17,0.61-0.22,0.87-0.14c0.4,0.12,0.76,0.38,1.11,0.63
	c1.62,1.15,3.23,2.33,4.85,3.48c1.06,0.76,2.18,1.41,3.54,1.62c-0.55-0.31-0.91-0.79-0.57-1.34c0.53-0.87,1.26-0.12,2.08-0.08
	L62.95,2.99c0,1.2,0.08,2.15-0.02,3.09c-0.11,1.11,0.19,1.83,1.35,2.06c0.18,0.05,0.36,0.13,0.52,0.23c0.5,0.26,0.77,0.67,0.59,1.23
	c-0.19,0.6-0.72,0.54-1.19,0.45c-0.4-0.08-0.78-0.25-1.25-0.41c0,0.52,0.06,0.95-0.01,1.36c-0.13,0.75,0.27,0.91,0.88,1.02
	c0.63,0.1,1.24,0.29,1.82,0.54c0.58,0.27,0.71,1.14,0.23,1.4c-0.32,0.14-0.67,0.18-1.02,0.12c-0.6-0.09-1.18-0.28-1.89-0.46
	c0,0.83-0.03,1.57,0.02,2.28c0.01,0.14,0.28,0.34,0.48,0.4c0.88,0.27,1.78,0.5,2.67,0.74c0.43,0.11,0.85,0.2,1.32,0.31
	c-0.01-0.15,0-0.31,0.03-0.46c0.1-0.29,0.17-0.76,0.36-0.82c0.34-0.08,0.69,0,0.96,0.21c0.35,0.31,0.61,0.71,0.75,1.15
	c0.14,0.49,0.39,0.69,0.85,0.79c0.85,0.19,1.7,0.44,2.54,0.67c0.95,0.26,1.9,0.52,2.94,0.81c-0.14-0.41-0.3-0.69-0.33-0.98
	c-0.02-0.14,0.14-0.43,0.26-0.46c0.89-0.24,1.95,0.39,2.09,1.29c0.09,0.57,0.38,0.81,0.88,0.95c1.74,0.47,3.47,0.95,5.21,1.42
	c0.19,0.03,0.38,0.05,0.57,0.06c0-0.2-0.04-0.36,0.01-0.48c0.13-0.3,0.23-0.73,0.48-0.85c0.24-0.11,0.66,0.04,0.97,0.16
	c0.2,0.09,0.36,0.24,0.46,0.43c0.79,1.55,2.19,2.12,3.77,2.41c0.21,0.04,0.41,0.12,0.62,0.17L92.62,24.32z M104.41,27.56l3.44,0.97
	l0.06-0.13l-5.12-2.88C103.32,26.35,104.52,26.37,104.41,27.56L104.41,27.56z"/>
<path class="st0" d="M24.54,37.53c-0.34,0.65-0.66,1.22-0.94,1.81c-0.47,0.98-0.89,1.99-1.39,2.96c-0.27,0.5-0.61,0.96-1,1.36
	c-0.36,0.38-0.91,0.45-1.29,0.1c-0.27-0.28-0.4-0.66-0.36-1.04c0.12-0.61,0.39-1.21,0.66-1.78c0.8-1.67,1.61-3.32,2.45-4.97
	c0.58-1.14,1.22-1.48,2.43-1.15c0.45,0.12,0.9,0.53,1.19,0.92c0.91,1.24,1.71,2.56,2.62,3.8c1.87,2.55,3.97,4.89,6.66,6.63
	c0.69,0.45,0.83,1,0.51,1.57c-0.35,0.61-0.93,0.82-1.65,0.45c-0.57-0.29-1.09-0.66-1.57-1.09c-2.99-2.73-5.69-5.69-7.92-9.08
	C24.85,37.87,24.73,37.76,24.54,37.53z"/>
<path class="st0" d="M38.27,29.72c0.57,0.16,1.19-0.15,1.28,0.58c0.09,0.67-0.28,1.11-0.89,1.26c-0.5,0.13-1.02,0.15-1.52,0.08
	c-0.27-0.05-0.63-0.43-0.66-0.69c-0.04-0.26,0.21-0.7,0.46-0.83C37.38,29.88,37.91,29.82,38.27,29.72z"/>
<path class="st0" d="M25.39,64.19c-1.09-0.03-2.07-1.7-1.58-2.45c0.21-0.26,0.53-0.4,0.87-0.38c0.81,0.14,1.55,1.61,1.22,2.35
	C25.78,63.95,25.5,64.09,25.39,64.19z"/>
<path class="st0" d="M28.84,57.26c-0.14,0.1-0.38,0.43-0.67,0.48c-0.81,0.16-1.88-0.78-1.93-1.61c-0.02-0.43,0.14-0.73,0.6-0.82
	C27.67,55.15,28.86,56.16,28.84,57.26z"/>
<path class="st0" d="M44.98,24.24c0.47-0.02,0.89,0.12,0.92,0.75c0.02,0.6-0.6,1.14-1.3,1.15c-0.63,0.01-1.08-0.36-1.08-0.88
	C43.52,24.69,44.12,24.25,44.98,24.24z"/>
<path class="st0" d="M97,50.16c-1.57-1.9-1.65-3.88-0.45-5.91c1.03-1.76,3.18-2.52,5.27-1.95c1.8,0.5,2.89,2.05,2.9,4.15
	c0.02,2.27-0.96,3.97-3.05,4.86c-3.71,1.57-7.59,1.94-11.57,1.32c-0.36-0.06-0.78-0.17-1.04-0.41c-0.25-0.24-0.5-0.69-0.44-1
	c0.05-0.3,0.45-0.71,0.75-0.78c0.54-0.11,1.13-0.03,1.68,0.06C92.4,50.72,95.54,50.57,97,50.16z M100.6,44.65
	c-1.52-0.01-2.88,1.16-2.87,2.45c0.01,1.15,0.96,1.94,2.33,1.94c1.49,0,2.56-1.19,2.54-2.81C102.58,45.33,101.73,44.65,100.6,44.65
	L100.6,44.65z"/>
<path class="st0" d="M87.26,43.95c0.27,0.74,0.59,1.36,0.69,2.03c0.06,0.36-0.16,1-0.43,1.12c-0.34,0.16-0.92,0.02-1.29-0.18
	c-0.32-0.17-0.53-0.59-0.74-0.93c-0.81-1.34-1.6-2.68-2.38-4.04c-0.21-0.34-0.38-0.71-0.49-1.09c-0.17-0.63,0.07-1.13,0.66-1.41
	c0.59-0.28,1.1-0.08,1.43,0.42c0.32,0.47,0.54,1,0.79,1.51c0.17,0.35,0.39,0.43,0.74,0.24c3.08-1.68,6.16-3.35,9.25-5.01
	c0.04-0.02,0.05-0.08,0.14-0.22c-0.41-0.13-0.79-0.26-1.17-0.37c-0.62-0.19-1.1-0.49-1.04-1.23c0.06-0.61,0.56-1.09,1.29-1.09
	c1.68-0.02,3.3,0.56,4.59,1.64c0.54,0.45,0.54,1.15-0.02,1.69c-0.46,0.4-0.97,0.75-1.51,1.03c-3.45,1.94-6.9,3.87-10.37,5.79
	C87.36,43.88,87.31,43.91,87.26,43.95z"/>
<path class="st0" d="M79.69,24.24c0.76,0.3,1.55,0.54,2.25,0.93c0.23,0.13,0.4,0.65,0.35,0.95c-0.06,0.46-0.48,0.47-0.9,0.39
	c-0.58-0.11-1.17-0.12-1.76-0.19c-0.23-0.03-0.46-0.09-0.69-0.17c-0.46-0.17-0.89-0.48-0.71-0.97c0.11-0.32,0.57-0.52,0.9-0.74
	c0.12-0.08,0.32-0.03,0.49-0.05L79.69,24.24z"/>
<path class="st0" d="M99.97,60.97c0.19-0.81,0.32-1.53,0.54-2.22c0.12-0.33,0.33-0.62,0.6-0.84c0.52-0.41,0.98-0.25,1.08,0.39
	c0.2,1.15-0.11,2.34-0.84,3.25c-0.17,0.22-0.7,0.31-1,0.22C100.16,61.72,100.09,61.24,99.97,60.97z"/>
<path class="st0" d="M82.4,32.17c0.24,0.07,0.58,0.1,0.85,0.25c0.44,0.26,0.39,1.06-0.14,1.28c-0.47,0.18-0.98,0.26-1.49,0.24
	c-0.45-0.01-0.87-0.33-0.78-0.81c0.06-0.32,0.41-0.62,0.7-0.83C81.74,32.17,82.05,32.22,82.4,32.17z"/>
<path class="st0" d="M94.25,58.82c-0.52-0.02-0.86-0.21-0.85-0.8c0.01-0.73,0.74-1.47,1.46-1.48c0.55,0,0.75,0.32,0.76,0.81
	C95.62,58.11,94.95,58.82,94.25,58.82z"/>
<path class="st0" d="M52.27,103.04c0.06-1.07,0.4-2.17,1.3-3.01c0.41-0.39,0.49-0.68,0.05-1.1c-1.44-1.41-1.7-3.09-0.94-4.89
	s2.24-2.77,4.17-2.83c2.86-0.08,4.59,1.87,4.53,4.75c-0.01,0.57-0.24,1.08-0.97,1.08c-0.73,0.01-1.06-0.28-1.18-1.04
	c-0.04-0.4-0.13-0.79-0.25-1.17c-0.45-1.11-1.53-1.58-2.69-1.2c-1.16,0.38-1.91,1.54-1.63,2.65c0.24,0.96,0.76,1.71,1.72,2.12
	c0.87,0.37,1.04,1.29,0.35,1.95c-0.43,0.41-0.95,0.7-1.4,1.09c-1,0.88-1,2.54-0.01,3.49c0.94,0.91,2.62,0.82,3.39-0.28
	c0.3-0.44,0.31-1.07,0.53-1.58c0.16-0.38,0.37-0.87,0.7-1.03c0.77-0.39,1.48,0.11,1.46,1.04c-0.05,2.41-1.15,4.42-3.95,4.7
	C54.85,108.06,52.25,105.75,52.27,103.04z"/>
<path class="st0" d="M68.36,103.56c0.71-0.38,1.22-0.75,1.8-0.94c0.33-0.11,0.9-0.06,1.09,0.16c0.22,0.26,0.34,0.86,0.19,1.16
	c-0.79,1.59-2.14,2.82-3.8,3.46c-0.76,0.29-1.37-0.15-1.52-1.04c-0.11-0.68-0.16-1.36-0.15-2.05c0.03-2.7,0.08-5.4,0.13-8.1
	c0.01-0.73,0.04-1.47,0.1-2.2c0.04-0.46-0.14-0.64-0.6-0.67c-0.54-0.01-1.09-0.06-1.62-0.14c-0.5-0.09-0.77-0.42-0.8-0.94
	s0.22-0.82,0.66-0.98c0.32-0.14,0.67-0.23,1.03-0.25c1.99,0.01,3.98,0.03,5.97,0.11c0.85,0.03,1.25,0.44,1.24,1.08
	c-0.01,0.61-0.47,1.04-1.25,1.1c-0.54,0.04-1.09-0.01-1.63,0.04c-0.17,0.02-0.47,0.22-0.47,0.35
	C68.58,96.96,68.48,100.23,68.36,103.56z"/>
<path class="st0" d="M41.46,90.01c0.88,0,1.83,1.21,1.59,2.05c-0.13,0.46-0.47,0.63-0.93,0.52c-0.62-0.15-1.36-1-1.43-1.62
	C40.62,90.42,40.95,90.01,41.46,90.01z"/>
<path class="st0" d="M93.54,97.76c-0.17-0.09-0.68-0.24-0.69-0.41c-0.02-0.37,0.12-0.93,0.39-1.1c0.62-0.37,1.3-0.65,2.01-0.82
	c1.09-0.28,2.22-0.46,3.32-0.69c0.47-0.1,0.74-0.26,0.57-0.87c-0.19-0.67,0.44-1.15,1.14-0.95c0.74,0.21,1.48,1.17,1.42,1.94
	c-0.04,0.32-0.19,0.61-0.43,0.83c-0.29,0.24-0.64,0.41-1.01,0.5c-2.01,0.52-4.03,1-6.05,1.49C94.05,97.71,93.88,97.71,93.54,97.76z"
	/>
<path class="st0" d="M93.72,100.38c0.09-0.41,0.06-0.93,0.3-1.19c0.43-0.45,0.96-0.21,1.41,0.13c0.56,0.43,0.91,0.98,0.84,1.71
	c-0.07,0.68-0.62,0.94-1.17,1.09c-2.04,0.52-4.08,1-6.13,1.47c-0.32,0.08-0.66,0.06-0.98-0.04c-0.51-0.18-0.4-1.16,0.24-1.42
	c0.9-0.38,1.87-0.61,2.83-0.85c0.96-0.24,1.92-0.4,2.88-0.59L93.72,100.38z"/>
<path class="st0" d="M28.2,99.91c0-0.96-0.13-1.9,0.03-2.8c0.22-1.22,1.37-1.96,2.61-1.76c0.65,0.09,1.29,0.29,1.87,0.6
	c1.98,1.14,3.29,2.89,4.12,5c0.2,0.49,0.43,1.16-0.17,1.47c-0.59,0.31-1.09-0.22-1.4-0.69c-0.5-0.75-0.92-1.55-1.35-2.34
	c-0.52-1-1.41-1.76-2.48-2.11c-0.29-0.11-0.59-0.16-0.9-0.16c-0.74,0.02-1.11,0.58-0.85,1.26c0.14,0.37,0.35,0.72,0.52,1.08
	c0.19,0.35,0.35,0.72,0.49,1.1c0.33,1.02,0.16,1.28-0.87,1.36c-1.78,0.14-3.27-0.26-4.17-2.01c-0.41-0.79-1-1.49-1.48-2.25
	c-0.3-0.48-0.67-1.11-0.11-1.54c0.55-0.43,1.09,0.09,1.44,0.52c0.43,0.53,0.74,1.15,1.08,1.74C27,99.1,27.45,99.75,28.2,99.91z"/>
<path class="st0" d="M107.99,72.45c0.28-0.13,0.48-0.2,0.66-0.29c1.39-0.71,2.86-0.34,3.73,0.95c0.98,1.44,1,3.82,0.06,5.27
	c-0.85,1.32-2.43,1.68-3.79,0.87c-0.83-0.49-1.44-1.27-1.71-2.19c-0.93-2.93-0.94-5.91-0.5-8.92c0.03-0.21,0.32-0.56,0.48-0.56
	c0.28,0.01,0.69,0.17,0.8,0.4c0.19,0.36,0.24,0.81,0.25,1.23C108.01,70.23,107.99,71.27,107.99,72.45z M111.42,75.76
	c-0.11-0.5-0.1-0.98-0.31-1.31c-0.24-0.35-0.68-0.77-1.05-0.78c-0.37-0.01-0.91,0.35-1.11,0.7c-0.57,0.97-0.49,2.02,0.13,2.96
	c0.54,0.8,1.52,0.74,1.94-0.13C111.24,76.73,111.3,76.2,111.42,75.76z"/>
<path class="st0" d="M108.69,66.15c-0.58,0.01-1.06-0.46-1.07-1.05c0-0.01,0-0.02,0-0.03c0-0.57,0.48-1.03,1.11-1.05
	c0.57-0.02,0.94,0.38,0.95,1C109.7,65.67,109.29,66.13,108.69,66.15z"/>
<path class="st0" d="M13.07,69.53c0-0.46,0.07-0.93-0.02-1.37c-0.14-0.71-0.49-1.41-0.54-2.12c-0.04-0.68,0.09-1.35,0.36-1.98
	c0.46-1.02,1.55-1.28,2.53-0.75c1.12,0.6,2.05,2.34,1.87,3.59c-0.03,0.24-0.23,0.63-0.38,0.64c-0.31,0.03-0.77-0.05-0.94-0.27
	c-0.31-0.39-0.45-0.93-0.69-1.38c-0.18-0.33-0.41-0.63-0.61-0.94l-0.33,0.08c-0.02,0.46-0.14,0.95-0.05,1.38
	c0.18,0.71,0.41,1.4,0.7,2.08c0.26,0.6,0.19,1.29-0.2,1.82c-0.38,0.54-0.74,1.11-1.19,1.59c-0.7,0.73-1.49,0.65-1.86-0.25
	c-0.47-1.15-0.78-2.37-1.08-3.58c-0.11-0.45,0-1,0.61-1.12c0.65-0.13,0.96,0.27,1.1,0.84c0.14,0.57,0.27,1.16,0.41,1.74L13.07,69.53
	z"/>
<path class="st0" d="M16.92,74.14c-0.62,1.36-1.2,2.63-1.85,4.05c0.41-0.04,0.65-0.12,0.86-0.08c0.32,0.07,0.84,0.18,0.88,0.35
	c0.07,0.38-0.01,0.78-0.24,1.09c-0.64,0.76-2.91,0.57-3.42-0.28c-0.18-0.3-0.19-0.79-0.1-1.15c0.15-0.54,0.46-1.03,0.71-1.54
	c0.68-1.35,1.37-2.7,2.03-4.06c0.08-0.16,0-0.4-0.01-0.59c-0.03-0.3-0.14-0.61-0.09-0.9c0.11-0.66,0.71-0.85,1.21-0.38
	c0.87,0.79,1.5,1.79,1.83,2.92c0.12,0.43,0.22,0.93-0.28,1.2c-0.51,0.27-0.91,0.04-1.22-0.39C17.14,74.29,17.03,74.21,16.92,74.14z"
	/>
<path class="st0" d="M13.56,58.06c-0.09,0.36-0.1,0.78-0.28,1.08c-0.14,0.23-0.52,0.47-0.77,0.45c-0.25-0.02-0.67-0.32-0.71-0.54
	c-0.08-0.58-0.05-1.16,0.07-1.73c0.1-0.44,0.48-0.7,1-0.6c0.49,0.1,0.63,0.45,0.63,0.9c0,0.14,0,0.28,0,0.43L13.56,58.06z"/>
<path class="st0" d="M53.06,11.64c-0.76,0.21-1.53,0.44-2.3,0.63c-0.99,0.23-1.57,0.06-1.73-0.48c-0.18-0.56,0.24-1.07,1.27-1.32
	c1.68-0.42,3.37-0.77,5.06-1.11c0.37-0.08,0.75-0.07,1.12,0.04c0.85,0.3,1.07,1.31,0.41,1.96c-0.43,0.43-0.97,0.75-1.45,1.13
	c-1.01,0.78-2.07,1.5-2.99,2.37c-0.6,0.57-1,1.36-1.49,2.05c-0.24,0.34-0.45,0.77-0.79,0.96c-0.26,0.14-0.76,0.1-1.03-0.06
	c-0.19-0.11-0.29-0.62-0.21-0.87c0.18-0.56,0.46-1.09,0.82-1.55C50.8,14.11,51.92,12.9,53.06,11.64z"/>
<path class="st0" d="M43.5,15.39c-0.64-0.88-0.65-1.41,0.22-2.01c0.82-0.55,1.71-0.98,2.64-1.29c0.35-0.12,0.95,0.1,1.24,0.38
	c0.16,0.15,0,0.84-0.22,1.12c-1.59,1.99-3.21,3.97-4.86,5.92c-0.39,0.47-1,0.87-1.55,0.44c-0.55-0.43-0.32-1.11,0.04-1.61
	c0.55-0.74,1.17-1.42,1.76-2.12C43.02,15.94,43.27,15.66,43.5,15.39z"/>
<path class="st0" d="M33.82,19.11c0.82,0.15,1.12,0.6,0.7,1.2c-0.28,0.43-0.66,0.78-1.1,1.04c-0.35,0.14-0.74,0.1-1.06-0.11
	c-0.34-0.27-0.39-0.77-0.12-1.1c0.03-0.03,0.06-0.06,0.09-0.09C32.76,19.66,33.31,19.42,33.82,19.11z"/>
<path class="st0" d="M74.23,12.19c-0.6-0.72-1.34-0.88-2.09-0.96c-0.7-0.08-1.42-0.06-2.12-0.11c-0.44-0.03-0.78-0.21-0.83-0.71
	c-0.05-0.53,0.28-0.77,0.73-0.91c1.81-0.57,5.03,0.39,6.2,1.85c0.09,0.11,0.23,0.24,0.22,0.35c-0.05,0.87,0.63,1.05,1.2,1.37
	c0.58,0.31,1.14,0.67,1.67,1.06c0.56,0.42,0.9,1.07,0.91,1.77c0.04,1.16-0.44,1.73-1.57,2.02c-1.35,0.35-2.63-0.1-3.93-0.23
	c-0.54-0.06-1.07-0.17-1.59-0.34c-0.51-0.16-0.91-0.49-0.8-1.09c0.12-0.6,0.66-0.65,1.13-0.59c1.1,0.14,2.19,0.37,3.29,0.52
	c0.43,0.06,0.85,0.01,1.34,0.01c-0.39-1.22-1.67-2.08-3.05-2.12c-0.64-0.02-1.28,0.08-1.91,0.1c-0.37,0.01-0.8,0.05-1.11-0.1
	c-0.28-0.13-0.6-0.5-0.62-0.79c-0.02-0.24,0.3-0.66,0.56-0.76c0.48-0.18,1.02-0.17,1.53-0.24C73.63,12.26,73.89,12.23,74.23,12.19z"
	/>
<path class="st0" d="M87.59,18.82c-0.14,0.15-0.33,0.48-0.6,0.6c-0.5,0.22-1.55-0.31-1.85-0.93c-0.12-0.25-0.14-0.7,0-0.89
	c0.35-0.45,0.88-0.38,1.36-0.18C87.05,17.66,87.52,17.96,87.59,18.82z"/>
<g id="Calque_2_-_copie">
	<path class="st0" d="M40.58,78.75c-1.41,0-2.56-1.15-2.56-2.56c0-0.39,0.09-0.77,0.26-1.11l20.25-41.98l0.01-0.02l1.16-2.34
		c0.63-1.27,2.16-1.79,3.43-1.16c0.5,0.25,0.91,0.66,1.16,1.16l6.34,12.83l0.01,0.02l15.13,31.36c0.62,1.27,0.1,2.81-1.17,3.43
		c-1.27,0.62-2.81,0.1-3.43-1.17l-8.27-16.49l-9.69,5.67c-0.8,0.47-1.79,0.47-2.59,0l-9.47-5.54l-8.28,16.49
		C42.43,78.2,41.54,78.75,40.58,78.75z M53.12,56.07l8.78,5.14l9-5.27l-4.88-10.12l-4.02-8.14L53.12,56.07z"/>
</g>
</svg>
